<svg width="64" height="64" viewBox="0 0 64 64" fill="none" xmlns="http://www.w3.org/2000/svg">
<g clip-path="url(#clip0_2234_283)">
<path d="M12.0127 47.46C19.8257 52.8445 29.2937 56 39.5 56C45.3148 56 50.8901 54.975 56.0566 53.0986C50.1917 59.7805 41.5893 64 32 64C24.8666 64 18.279 61.6649 12.958 57.7188C12.3314 54.7443 12 51.6608 12 48.5C12 48.1524 12.0048 47.8057 12.0127 47.46ZM0.246094 35.9854C2.53614 39.1357 5.19595 41.9988 8.16211 44.5127C8.0551 45.8277 8 47.1574 8 48.5C8 50.1681 8.08364 51.8166 8.24805 53.4414C3.96111 48.6955 1.07529 42.6599 0.246094 35.9854ZM48.6777 4.68555C57.8673 10.3085 64 20.4377 64 32C64 37.343 62.6876 42.3787 60.3721 46.8066C54.1468 50.1192 47.0436 52 39.5 52C29.2851 52 19.876 48.5557 12.3652 42.7686C14.8457 23.4776 29.6792 8.05449 48.6777 4.68555ZM32 0C35.8448 0 39.5313 0.677828 42.9463 1.9209C25.5015 6.98831 12.1128 21.5882 8.79492 39.709C5.3613 36.4347 2.4531 32.6158 0.203125 28.3926C1.99547 12.4178 15.5466 0 32 0Z" fill="url(#paint0_radial_2234_283)"/>
</g>
<defs>
<radialGradient id="paint0_radial_2234_283" cx="0" cy="0" r="1" gradientTransform="matrix(54.2273 -0.941174 0.938188 117.647 12.3245 21.6471)" gradientUnits="userSpaceOnUse">
<stop stop-color="#EE0000"/>
<stop offset="0.144231" stop-color="#DC9511"/>
<stop offset="0.346154" stop-color="#59C328"/>
<stop offset="0.5625" stop-color="#41A99D"/>
<stop offset="0.754808" stop-color="#1B3EEE"/>
<stop offset="1" stop-color="#737373"/>
</radialGradient>
<clipPath id="clip0_2234_283">
<rect width="64" height="64" fill="white"/>
</clipPath>
</defs>
</svg>
